<svg width="15" height="15" viewBox="0 0 15 15" fill="none" xmlns="http://www.w3.org/2000/svg">
<path fill-rule="evenodd" clip-rule="evenodd" d="M11.6604 8.06424C12.3207 8.06399 12.9663 8.26717 13.5154 8.64807C14.0646 9.02897 14.4927 9.57049 14.7455 10.2041C14.9984 10.8378 15.0647 11.5351 14.936 12.2079C14.8073 12.8807 14.4895 13.4987 14.0226 13.9838C13.5558 14.469 12.961 14.7994 12.3134 14.9333C11.6658 15.0672 10.9945 14.9986 10.3844 14.7361C9.77432 14.4737 9.25287 14.0292 8.886 13.4589C8.51912 12.8886 8.3233 12.2181 8.3233 11.5321C8.3233 10.6126 8.67485 9.73073 9.30064 9.08041C9.92644 8.43009 10.7753 8.06458 11.6604 8.06424ZM8.7383 0.507185C8.7383 0.224429 9.00805 0 9.34128 0C9.6745 0 9.94426 0.230769 9.94426 0.513525V2.89729C9.94426 3.18132 9.6745 3.41082 9.34128 3.41082C9.00805 3.41082 8.7383 3.18132 8.7383 2.89729V0.507185ZM3.33591 0.507185C3.33591 0.224429 3.60566 0 3.93889 0C4.27211 0 4.54309 0.230769 4.54309 0.513525V2.89729C4.54309 3.18132 4.27211 3.41716 3.93889 3.41716C3.60566 3.41716 3.33591 3.18766 3.33591 2.90363V0.507185ZM5.8589 9.84066H7.32362C7.13001 10.3818 7.03162 10.9548 7.03312 11.5321C7.03312 11.6424 7.03312 11.7527 7.0441 11.8618H5.8589C5.79846 11.8615 5.74059 11.8364 5.69785 11.792C5.65512 11.7476 5.63097 11.6875 5.63064 11.6247V10.0778C5.63097 10.015 5.65512 9.95487 5.69785 9.91047C5.74059 9.86608 5.79846 9.84099 5.8589 9.84066ZM9.47188 6.5503H11.2625C11.313 6.55072 11.3619 6.56831 11.4018 6.60037C11.4417 6.63244 11.4704 6.6772 11.4834 6.72781C10.691 6.75832 9.91953 7.0007 9.24363 7.43153V6.78614C9.24395 6.72347 9.26814 6.66349 9.31092 6.61929C9.35369 6.5751 9.41156 6.55029 9.47188 6.5503ZM5.8589 6.5503H7.65074C7.71107 6.55029 7.76894 6.5751 7.81171 6.61929C7.85448 6.66349 7.87867 6.72347 7.879 6.78614V8.33432C7.87836 8.397 7.85411 8.45693 7.81144 8.50125C7.76877 8.54557 7.71108 8.57077 7.65074 8.57143H5.8589C5.79846 8.57109 5.74059 8.54601 5.69785 8.50161C5.65512 8.45722 5.63097 8.3971 5.63064 8.33432V6.78614C5.63128 6.72357 5.65558 6.66378 5.69828 6.61966C5.74098 6.57554 5.79867 6.55062 5.8589 6.5503ZM2.24835 6.5503H4.0402C4.07038 6.54979 4.10035 6.55551 4.12839 6.56712C4.15643 6.57873 4.18197 6.59601 4.20354 6.61794C4.2251 6.63987 4.24227 6.66603 4.25404 6.6949C4.26581 6.72377 4.27196 6.75478 4.27211 6.78614V8.33432C4.27148 8.397 4.24723 8.45693 4.20456 8.50125C4.16189 8.54557 4.1042 8.57077 4.04386 8.57143H2.24957C2.18904 8.57143 2.13098 8.54645 2.08817 8.50198C2.04537 8.45751 2.02132 8.3972 2.02132 8.33432V6.78614C2.02164 6.72347 2.04583 6.66349 2.0886 6.61929C2.13137 6.5751 2.18925 6.55029 2.24957 6.5503H2.24835ZM2.24835 9.84066H4.0402C4.07048 9.84015 4.10055 9.84591 4.12867 9.8576C4.15679 9.86929 4.18239 9.88668 4.20397 9.90875C4.22555 9.93082 4.2427 9.95712 4.25439 9.98614C4.26609 10.0152 4.27212 10.0463 4.27211 10.0778V11.6247C4.27147 11.688 4.24671 11.7485 4.20325 11.7929C4.1598 11.8374 4.10117 11.8621 4.0402 11.8618H2.24957C2.18904 11.8618 2.13098 11.8368 2.08817 11.7923C2.04537 11.7479 2.02132 11.6876 2.02132 11.6247V10.0778C2.02132 10.0149 2.04537 9.95457 2.08817 9.91011C2.13098 9.86564 2.18904 9.84066 2.24957 9.84066H2.24835ZM7.79966 14.1847H1.2499C0.9188 14.1834 0.60163 14.0461 0.367507 13.8029C0.133384 13.5597 0.00128583 13.2302 0 12.8863V2.59806C0.00160448 2.25421 0.133805 1.92493 0.367859 1.68179C0.601914 1.43866 0.918899 1.30133 1.2499 1.29966H2.40215V2.89729C2.40325 3.11088 2.45055 3.32148 2.54055 3.51352C2.63056 3.70556 2.76096 3.87413 2.92213 4.00676C3.21002 4.24877 3.56915 4.38081 3.9395 4.38081C4.30985 4.38081 4.66898 4.24877 4.95687 4.00676C5.11804 3.87413 5.24844 3.70556 5.33844 3.51352C5.42845 3.32148 5.47575 3.11088 5.47685 2.89729V1.29966H7.80454V2.89729C7.80541 3.11079 7.85248 3.32136 7.94228 3.5134C8.03207 3.70545 8.16229 3.87406 8.3233 4.00676C8.61138 4.24887 8.97072 4.38096 9.34128 4.38096C9.71184 4.38096 10.0712 4.24887 10.3593 4.00676C10.5201 3.87388 10.6501 3.70523 10.7399 3.51322C10.8297 3.32122 10.8769 3.11075 10.878 2.89729V1.29966H12.084C12.4151 1.301 12.7322 1.43822 12.9664 1.68143C13.2005 1.92464 13.3326 2.25411 13.3339 2.59806V7.04734C13.1596 6.97716 12.9815 6.91788 12.8005 6.86982V5.0579H0.533404V12.6099C0.535969 12.8792 0.640507 13.1366 0.824397 13.3264C1.00829 13.5163 1.25674 13.6233 1.51599 13.6243H7.49695C7.58739 13.8154 7.68931 14.0005 7.8021 14.1784L7.79966 14.1847ZM11.1978 9.78614H11.6055C11.6418 9.78614 11.6765 9.8011 11.7022 9.82773C11.7278 9.85436 11.7422 9.89048 11.7422 9.92815V11.5613H13.1825C13.2186 11.5613 13.2532 11.5761 13.2788 11.6024C13.3044 11.6288 13.3189 11.6646 13.3192 11.702V12.1268C13.3189 12.1642 13.3044 12.2 13.2788 12.2264C13.2532 12.2528 13.2186 12.2675 13.1825 12.2675H11.0623V9.92815C11.0623 9.8907 11.0766 9.85477 11.1019 9.82818C11.1273 9.80158 11.1618 9.78647 11.1978 9.78614ZM11.6604 8.85165C12.1708 8.8514 12.6698 9.00839 13.0943 9.30277C13.5188 9.59715 13.8497 10.0157 14.0452 10.5055C14.2407 10.9952 14.292 11.5342 14.1926 12.0543C14.0931 12.5743 13.8475 13.0521 13.4867 13.4271C13.1258 13.8021 12.6661 14.0575 12.1655 14.161C11.6649 14.2645 11.146 14.2115 10.6745 14.0087C10.2029 13.8058 9.79983 13.4623 9.51624 13.0214C9.23266 12.5806 9.08129 12.0623 9.08129 11.5321C9.08113 11.1802 9.14772 10.8316 9.27727 10.5064C9.40681 10.1812 9.59676 9.88574 9.83627 9.63682C10.0758 9.3879 10.3602 9.19043 10.6732 9.05571C10.9861 8.92099 11.3216 8.85165 11.6604 8.85165Z" fill="#848181"/>
</svg>
