<svg width="17" height="19" viewBox="0 0 17 19" fill="none" xmlns="http://www.w3.org/2000/svg">
<g clip-path="url(#clip0_58_232)">
<path fill-rule="evenodd" clip-rule="evenodd" d="M13.3083 12.6448C15.3525 13.2881 16.6776 14.3163 16.6776 15.476C16.6776 17.4227 12.945 18.9998 8.33878 18.9998C3.73258 18.9998 0 17.4227 0 15.476C0 14.2885 1.3916 13.2386 3.51457 12.6C3.59188 12.7175 3.66919 12.835 3.74805 12.9495C3.91401 13.1907 4.08564 13.4278 4.26294 13.6607C2.77547 14.0596 1.82145 14.675 1.82145 15.3616C1.82145 16.5645 4.70825 17.5402 8.27075 17.5402C11.8333 17.5402 14.7185 16.5645 14.7185 15.3616C14.7185 14.7183 13.8928 14.14 12.5785 13.7411C12.8367 13.387 13.0795 13.019 13.3083 12.6402V12.6448ZM11.0787 13.0639C10.3815 13.8323 9.5781 14.4972 8.69287 15.0384C8.63788 15.0794 8.57164 15.1026 8.50308 15.1048C8.43452 15.107 8.36692 15.0882 8.30941 15.0508C7.04617 14.2548 5.92425 13.2542 4.98966 12.0898C3.78052 10.5729 3.01978 8.89061 2.75846 7.26708C2.49406 5.62808 2.74145 4.04784 3.55631 2.76293C3.88909 2.23984 4.30721 1.77625 4.79329 1.39143C5.94832 0.476062 7.26725 -0.009452 8.5769 -0.00017466C9.9149 0.0198881 11.1962 0.543245 12.1657 1.46565C12.5389 1.80567 12.8617 2.1972 13.1243 2.62841C14.0026 4.07722 14.1928 5.92341 13.8062 7.79434C13.3774 9.75689 12.4363 11.5708 11.0787 13.0515V13.0639ZM8.32641 2.92064C8.88453 2.92064 9.4301 3.08614 9.89416 3.39621C10.3582 3.70628 10.7199 4.147 10.9335 4.66262C11.1471 5.17825 11.2029 5.74563 11.0941 6.29302C10.9852 6.84041 10.7164 7.34321 10.3218 7.73786C9.92713 8.1325 9.42432 8.40126 8.87693 8.51014C8.32955 8.61902 7.76216 8.56314 7.24654 8.34956C6.73091 8.13598 6.2902 7.77429 5.98013 7.31024C5.67006 6.84619 5.50456 6.30061 5.50456 5.7425C5.50435 5.37187 5.5772 5.00484 5.71894 4.66238C5.86068 4.31993 6.06853 4.00877 6.33061 3.74669C6.59268 3.48462 6.90384 3.27677 7.2463 3.13503C7.58875 2.99329 7.95579 2.92044 8.32641 2.92064Z" fill="#848181"/>
</g>
<defs>
<clipPath id="clip0_58_232">
<rect width="16.6776" height="19" fill="white"/>
</clipPath>
</defs>
</svg>
