<svg width="17" height="17" viewBox="0 0 17 17" fill="none" xmlns="http://www.w3.org/2000/svg">
<g clip-path="url(#clip0_58_220)">
<path d="M7.08333 -0.291656C6.69233 -0.291656 6.375 0.0256769 6.375 0.416677V2.54168H9.20833V0.416677C9.20833 0.0256769 8.891 -0.291656 8.5 -0.291656H7.08333ZM7.79167 0.416677C8.18267 0.416677 8.5 0.73401 8.5 1.12501C8.5 1.51601 8.18267 1.83334 7.79167 1.83334C7.40067 1.83334 7.08333 1.51601 7.08333 1.12501C7.08333 0.73401 7.40067 0.416677 7.79167 0.416677ZM3.54167 1.12501C2.76108 1.12501 2.125 1.76039 2.125 2.54168V13.1667C2.125 13.948 2.76108 14.5833 3.54167 14.5833H7.79167L6.375 13.1667H3.54167V2.54168H5.66667V1.12501H3.54167ZM9.91667 1.12501V2.54168H12.0417V11.75L13.4583 10.3333V2.54168C13.4583 1.76039 12.8222 1.12501 12.0417 1.12501H9.91667ZM7.79167 4.66668C7.00926 4.66668 6.375 5.30094 6.375 6.08334C6.375 6.86575 7.00926 7.50001 7.79167 7.50001C8.57407 7.50001 9.20833 6.86575 9.20833 6.08334C9.20833 5.30094 8.57407 4.66668 7.79167 4.66668ZM7.79167 8.20834C5.92096 8.20834 4.95833 9.75782 4.95833 9.75782V10.3333H10.625V9.75782C10.625 9.75782 9.66237 8.20834 7.79167 8.20834ZM15.7826 9.91277L11.4219 14.2734L9.71745 12.5912L8.69922 13.5873L10.9128 15.8008L11.4219 16.2878L11.931 15.8008L16.8008 10.931L15.7826 9.91277Z" fill="#848181"/>
</g>
<defs>
<clipPath id="clip0_58_220">
<rect width="17" height="17" fill="white"/>
</clipPath>
</defs>
</svg>
