<svg width="25" height="25" viewBox="0 0 25 25" fill="none" xmlns="http://www.w3.org/2000/svg">
<path d="M12.5 0C5.60742 0 0 5.60742 0 12.5C0 19.3926 5.60742 25 12.5 25C19.3926 25 25 19.3926 25 12.5C25 5.60742 19.3926 0 12.5 0ZM14.0625 18.75H12.5C12.2237 18.75 11.9587 18.6402 11.7634 18.4449C11.568 18.2495 11.4583 17.9845 11.4583 17.7083C11.4583 17.432 11.568 17.167 11.7634 16.9716C11.9587 16.7763 12.2237 16.6665 12.5 16.6665H14.0625C14.7532 16.6665 15.4156 16.3921 15.904 15.9037C16.3924 15.4153 16.6667 14.7529 16.6667 14.0623C16.6667 13.3716 16.3924 12.7092 15.904 12.2208C15.4156 11.7324 14.7532 11.458 14.0625 11.458H9.80664L11.1533 12.8047C11.3487 13 11.4584 13.265 11.4584 13.5413C11.4584 13.8175 11.3487 14.0825 11.1533 14.2778C10.958 14.4732 10.693 14.5829 10.4167 14.5829C10.1405 14.5829 9.87553 14.4732 9.68018 14.2778L6.55518 11.1528C6.50657 11.104 6.4629 11.0505 6.4248 10.9932C6.40771 10.9678 6.396 10.9399 6.38184 10.9136C6.34118 10.851 6.31238 10.7815 6.29688 10.7085C6.28809 10.6787 6.27637 10.6504 6.27051 10.6191C6.24371 10.4844 6.24371 10.3457 6.27051 10.2109C6.27686 10.1802 6.28809 10.1514 6.29688 10.1216C6.31238 10.0486 6.34118 9.97907 6.38184 9.9165C6.39648 9.89014 6.4082 9.86231 6.4248 9.83691C6.4629 9.77953 6.50657 9.72605 6.55518 9.67725L9.68018 6.55225C9.7769 6.45552 9.89174 6.37879 10.0181 6.32644C10.1445 6.27409 10.28 6.24715 10.4167 6.24715C10.5535 6.24715 10.689 6.27409 10.8154 6.32644C10.9418 6.37879 11.0566 6.45552 11.1533 6.55225C11.25 6.64897 11.3268 6.76381 11.3791 6.89019C11.4315 7.01657 11.4584 7.15202 11.4584 7.28882C11.4584 7.42561 11.4315 7.56107 11.3791 7.68745C11.3268 7.81383 11.25 7.92866 11.1533 8.02539L9.80664 9.375H14.0625C15.3057 9.375 16.498 9.86886 17.3771 10.7479C18.2561 11.627 18.75 12.8193 18.75 14.0625C18.75 15.3057 18.2561 16.498 17.3771 17.3771C16.498 18.2561 15.3057 18.75 14.0625 18.75Z" fill="black"/>
</svg>
